<?xml version="1.0" encoding="UTF-8"?>
<svg id="Layer_1" data-name="Layer 1" xmlns="http://www.w3.org/2000/svg" viewBox="0 0 44.95 59.56">
  <path d="m4.44,0C16.5,0,28.56,0,40.61,0c.31.1.63.18.94.29,1.69.61,3.41,2.34,3.4,5.16-.04,16.79-.02,33.57-.02,50.36,0,.33,0,.66-.03.99-.13,1.75-1.35,2.89-2.95,2.75-.82-.08-1.49-.51-2.11-1.03-5.08-4.32-10.15-8.65-15.23-12.96-1.27-1.08-2.81-1.07-4.07,0-5.03,4.26-10.04,8.53-15.08,12.78-.47.39-1,.75-1.56.99-1.53.64-3.03.01-3.6-1.53-.23-.63-.31-1.36-.31-2.04C0,41.24,0,26.74,0,12.24c0-2.35,0-4.69,0-7.04C.01,2.89,1.22,1.37,3.25.41,3.63.23,4.04.14,4.44,0Z" style="fill: #e5e7eb;"/>
</svg>