<?xml version="1.0" encoding="UTF-8"?>
<svg id="Layer_1" data-name="Layer 1" xmlns="http://www.w3.org/2000/svg" viewBox="0 0 48.96 59.49">
  <path d="m13.98,20.99v-.98c0-5.43,0-10.87,0-16.3C13.98,1.46,15.43,0,17.66,0c4.53,0,9.07,0,13.6,0,2.27,0,3.7,1.45,3.71,3.75,0,5.41,0,10.82,0,16.22,0,.3,0,.6,0,.96.27.02.5.05.74.05,1.61,0,3.22,0,4.83,0,1.46,0,2.52.69,3.12,1.99.62,1.32.45,2.6-.47,3.76-.17.21-.37.4-.56.6-5.12,5.12-10.23,10.24-15.35,15.35-1.86,1.85-3.78,1.86-5.63,0-5.16-5.16-10.31-10.32-15.48-15.46-1.14-1.13-1.57-2.4-1.04-3.93.49-1.42,1.74-2.29,3.25-2.3,1.83-.01,3.66,0,5.6,0Z" style="fill: #e5e7eb;"/>
  <path d="m24.51,52.47c6.91,0,13.83,0,20.74,0,2.16,0,3.72,1.48,3.71,3.51,0,2.01-1.59,3.51-3.74,3.51-13.83,0-27.65,0-41.48,0-1.97,0-3.48-1.24-3.71-3.01-.24-1.85.81-3.45,2.6-3.91.36-.09.76-.1,1.13-.1,6.91,0,13.83,0,20.74,0Z" style="fill: #e5e7eb;"/>
</svg>