<?xml version="1.0" encoding="UTF-8"?>
<svg id="Layer_1" data-name="Layer 1" xmlns="http://www.w3.org/2000/svg" viewBox="0 0 64.95 59.56">
  <path d="m64.95,32.29c-.16,1.04-.28,2.08-.49,3.11-2.35,11.16-8.87,18.8-19.61,22.58-12.23,4.3-26.01-.35-33.46-11.03-.95-1.36-.72-3.01.55-3.92,1.26-.9,2.9-.57,3.88.79,3.75,5.22,8.74,8.6,15.06,9.78,8.52,1.59,15.89-.82,21.95-6.97,3.88-3.94,6.01-8.76,6.56-14.27,1.24-12.27-7.06-23.64-19.42-26.02-12.41-2.39-24.63,5.24-27.84,17.59-.01.04,0,.08-.02.19.18-.1.33-.18.47-.27,1.17-.79,2.34-1.59,3.52-2.37,1.32-.87,2.97-.57,3.81.67.88,1.29.56,2.91-.79,3.83-2.93,2-5.87,3.98-8.82,5.95-1.39.93-3.01.62-3.94-.77-2.01-3-3.98-6.02-5.97-9.04-.7-1.07-.5-2.98.77-3.76,1.28-.79,2.85-.49,3.75.77.34.48.65.99.98,1.48.33.49.65.98,1.04,1.57.21-.67.37-1.26.57-1.83C11.27,9.81,18.57,3.05,29.47.67c15.86-3.47,31.46,6.89,34.83,22.82.24,1.15.35,2.33.53,3.5.02.16.08.32.12.49v4.82Z" style="fill: #6b7280;"/>
  <path d="m37.93,22.17c0,1.97-.02,3.93.02,5.9,0,.33.17.74.4.98,2.25,2.32,4.54,4.6,6.81,6.9.77.78,1.09,1.7.76,2.78-.31,1.02-1.01,1.64-2.04,1.87-.91.2-1.75-.02-2.4-.67-2.77-2.76-5.51-5.54-8.26-8.33-.51-.52-.73-1.17-.73-1.9,0-4.52,0-9.04,0-13.57,0-1.54,1.15-2.71,2.65-2.73,1.54-.01,2.75,1.12,2.77,2.69.03,2.03,0,4.06,0,6.09h0Z" style="fill: #6b7280;"/>
</svg>