<?xml version="1.0" encoding="UTF-8"?>
<svg id="Layer_1" data-name="Layer 1" xmlns="http://www.w3.org/2000/svg" viewBox="0 0 62.85 59.56">
  <path d="m21.91,0c1.31.07,2.32.62,3.13,1.6,1.36,1.65,3.08,2.67,5.21,2.96,2.98.41,5.45-.59,7.42-2.82,1.52-1.71,2.94-2.07,5.07-1.25,3.07,1.19,5.88,2.83,8.43,4.91,1.65,1.35,2.06,2.79,1.36,4.82-1.68,4.89,1.34,9.96,6.44,10.82,1.86.31,3,1.44,3.36,3.34.7,3.62.64,7.24-.06,10.85-.31,1.6-1.65,2.82-3.27,3.07-4.48.67-7.42,4.21-7.16,8.73.05.81.29,1.63.56,2.4.66,1.89.26,3.45-1.29,4.73-2.43,1.99-5.09,3.57-7.99,4.77-1.79.74-3.54.29-4.74-1.22-3.53-4.45-9.76-4.39-13.19.15-1.22,1.62-2.91,2.11-4.81,1.39-3.2-1.22-6.13-2.92-8.78-5.09-1.49-1.22-1.88-2.9-1.11-4.76,2.03-4.92-.67-10.13-5.84-11.28-.13-.03-.26-.06-.38-.07-2.47-.3-3.68-1.51-4-3.97-.45-3.36-.36-6.69.27-10.02.34-1.79,1.7-3.06,3.52-3.27,5.33-.6,8.61-5.85,6.82-10.9-.77-2.15-.31-3.67,1.49-5.05,2.46-1.88,5.13-3.37,8.03-4.45.48-.18,1-.26,1.51-.38Zm19.98,29.84c.06-5.67-4.64-10.45-10.33-10.51-5.77-.06-10.57,4.62-10.61,10.36-.04,5.75,4.61,10.51,10.33,10.57,5.8.06,10.55-4.6,10.61-10.43Z" style="fill: #e5e7eb;"/>
</svg>