<?xml version="1.0" encoding="UTF-8"?>
<svg id="Layer_1" data-name="Layer 1" xmlns="http://www.w3.org/2000/svg" viewBox="0 0 70 69.99">
  <path d="m41.98,13.94c0-3.3,0-6.61,0-9.91C41.99,1.34,43.33,0,46.02,0c6.64,0,13.27,0,19.91,0,2.73,0,4.07,1.34,4.07,4.07,0,6.64,0,13.27,0,19.91,0,2.68-1.35,4.03-4.03,4.03-6.64,0-13.27,0-19.91,0-2.73,0-4.07-1.34-4.07-4.07,0-3.33,0-6.66,0-9.99Z" style="fill: #6b7280;"/>
  <path d="m14.01,38.5c-3.33,0-6.66,0-10,0-2.67,0-4.01-1.36-4.01-4.05,0-6.64,0-13.27,0-19.91,0-2.73,1.34-4.05,4.09-4.05,6.61,0,13.22,0,19.83,0,2.75,0,4.1,1.32,4.1,4.05,0,6.66,0,13.33,0,19.99,0,1.47-.39,2.75-1.75,3.45-.67.34-1.51.49-2.27.51-3.33.05-6.66.02-10,.02Z" style="fill: #6b7280;"/>
  <path d="m28.02,56.06c0,3.3,0,6.61,0,9.91,0,2.64-1.36,4-3.97,4.01-6.69,0-13.38,0-20.07,0-2.58,0-3.96-1.37-3.96-3.93,0-6.72,0-13.43,0-20.15,0-2.53,1.37-3.92,3.89-3.92,6.75-.01,13.49-.01,20.24,0,2.51,0,3.88,1.39,3.88,3.93.01,3.39,0,6.77,0,10.16Z" style="fill: #6b7280;"/>
  <path d="m45.54,41.97c3.3,0,6.61,0,9.91,0,2.69,0,4.04,1.34,4.05,4.01,0,6.66,0,13.33,0,19.99,0,2.63-1.36,4-3.97,4-6.69,0-13.38,0-20.07,0-2.58,0-3.96-1.37-3.96-3.93,0-6.72,0-13.43,0-20.15,0-2.56,1.39-3.92,3.97-3.92,3.36,0,6.72,0,10.08,0Z" style="fill: #6b7280;"/>
</svg>