<?xml version="1.0" encoding="UTF-8"?>
<svg id="Layer_1" data-name="Layer 1" xmlns="http://www.w3.org/2000/svg" viewBox="0 0 14.98 12.11">
  <path d="m1.67,4.28c.19-.42.35-.85.58-1.24C3.25,1.33,4.76.3,6.73.06c2.11-.27,3.89.44,5.31,2.02.42.47.2,1.15-.4,1.26-.3.06-.54-.07-.74-.3-.64-.73-1.43-1.2-2.36-1.42-2.28-.56-4.69.8-5.37,3.03,0,.02-.01.04-.03.11.25-.17.46-.33.68-.48.3-.2.67-.17.92.05.36.33.34.87-.07,1.17-.59.43-1.18.84-1.77,1.26-.1.07-.19.14-.29.2-.34.21-.76.16-.99-.16-.51-.7-1.01-1.4-1.5-2.12-.22-.33-.12-.77.2-1,.33-.23.77-.17,1.02.15.12.15.22.31.33.45Z" style="fill: #e5e7eb;"/>
  <path d="m11.85,7.35c-.24.17-.44.32-.65.46-.37.25-.83.18-1.07-.17-.24-.35-.16-.8.22-1.06.66-.47,1.32-.93,1.98-1.4.39-.27.82-.2,1.09.18.48.67.95,1.33,1.42,2,.25.36.17.82-.17,1.06-.34.24-.79.16-1.05-.19-.1-.14-.2-.28-.31-.43-.02.06-.04.09-.06.13-.82,2.32-2.46,3.72-4.87,4.1-2.15.34-3.98-.39-5.45-2.01-.3-.33-.27-.79.04-1.07.32-.29.78-.25,1.09.09.96,1.08,2.17,1.6,3.61,1.56,1.88-.05,3.6-1.36,4.15-3.15,0-.02.01-.04.03-.1Z" style="fill: #e5e7eb;"/>
</svg>