<?xml version="1.0" encoding="UTF-8"?>
<svg id="Layer_1" data-name="Layer 1" xmlns="http://www.w3.org/2000/svg" viewBox="0 0 52.07 52.07">
  <path d="m26.03,33.14c-3.92,0-7.11-3.19-7.11-7.11s3.19-7.11,7.11-7.11,7.11,3.19,7.11,7.11-3.19,7.11-7.11,7.11Zm0-12.22c-2.82,0-5.11,2.29-5.11,5.11s2.29,5.11,5.11,5.11,5.11-2.29,5.11-5.11-2.29-5.11-5.11-5.11Z" style="fill: #fff;"/>
  <g>
    <path d="m26.03,42.35c-9,0-16.31-7.32-16.31-16.31s7.32-16.31,16.31-16.31,16.31,7.32,16.31,16.31-7.32,16.31-16.31,16.31Zm0-30.13c-7.62,0-13.81,6.2-13.81,13.81s6.2,13.81,13.81,13.81,13.81-6.2,13.81-13.81-6.2-13.81-13.81-13.81Z" style="fill: #fff;"/>
    <g>
      <path d="m26.03,12.22c-.69,0-1.25-.56-1.25-1.25V1.25c0-.69.56-1.25,1.25-1.25s1.25.56,1.25,1.25v9.72c0,.69-.56,1.25-1.25,1.25Z" style="fill: #fff;"/>
      <path d="m50.82,27.28h-9.72c-.69,0-1.25-.56-1.25-1.25s.56-1.25,1.25-1.25h9.72c.69,0,1.25.56,1.25,1.25s-.56,1.25-1.25,1.25Z" style="fill: #fff;"/>
      <path d="m26.03,52.07c-.69,0-1.25-.56-1.25-1.25v-9.72c0-.69.56-1.25,1.25-1.25s1.25.56,1.25,1.25v9.72c0,.69-.56,1.25-1.25,1.25Z" style="fill: #fff;"/>
      <path d="m10.97,27.28H1.25c-.69,0-1.25-.56-1.25-1.25s.56-1.25,1.25-1.25h9.72c.69,0,1.25.56,1.25,1.25s-.56,1.25-1.25,1.25Z" style="fill: #fff;"/>
    </g>
  </g>
  <circle cx="26.03" cy="26.03" r="7.11" style="fill: #70c175;"/>
</svg>